<?xml version="1.0" encoding="UTF-8"?>
<svg version="1.1" width="32.15mm" height="30.13mm" viewBox="-5.06 -25.50 32.15 30.13" fill-rule="nonzero" stroke-miterlimit="1" style="font-family: &apos;Times New Roman&apos;; font-weight:normal" xmlns="http://www.w3.org/2000/svg" xmlns:xlink="http://www.w3.org/1999/xlink">
<!--Created by TpX drawing tool-->
  <defs/>
  <polygon stroke="black" stroke-width="0.45" fill="lightgray" points="-1.19,2.63 13.19,-21.13 12.56,-23.00 -3.06,2.63"/>
  <polygon stroke="black" stroke-width="0.45" fill="lightgray" points="13.81,-21.13 16.31,-21.13 16.31,-18.00 12.56,-18.00 12.56,-16.13 18.19,-16.13 18.19,-23.00 13.19,-23.00"/>
  <polygon stroke="black" stroke-width="0.45" fill="lightgray" points="16.31,-15.50 16.31,0.75 11.94,0.75 11.94,-3.00 10.06,-3.00 10.06,0.75 5.06,0.75 5.06,-1.13 3.19,-1.13 3.19,0.75 0.50,0.75 -0.56,2.63 18.19,2.63 18.19,-15.50"/>
  <rect x="18.19" y="-22.00" width="6.90" height="0.00" stroke="silver" stroke-width="0.15" fill="none"/>
  <polyline stroke="silver" stroke-width="0.15" fill="none" points="21.50,-23.50 21.50,-22.00 20.50,-23.00 24.00,-23.00"/>
</svg>