<?xml version="1.0" encoding="UTF-8" standalone="no"?>
<svg
   version="1.1"
   width="31.259613mm"
   height="31.55978mm"
   viewBox="-5.06 -25.5 31.259613 31.559782"
   fill-rule="nonzero"
   stroke-miterlimit="1"
   style="font-weight:normal;font-family:'Times New Roman'"
   id="svg14"
   sodipodi:docname="Logo2-Hyd.svg"
   inkscape:export-filename="Logo2-Hyd.png"
   inkscape:export-xdpi="25.754299"
   inkscape:export-ydpi="25.754299"
   inkscape:version="1.2 (dc2aedaf03, 2022-05-15)"
   xmlns:inkscape="http://www.inkscape.org/namespaces/inkscape"
   xmlns:sodipodi="http://sodipodi.sourceforge.net/DTD/sodipodi-0.dtd"
   xmlns="http://www.w3.org/2000/svg"
   xmlns:svg="http://www.w3.org/2000/svg">
  <sodipodi:namedview
     id="namedview16"
     pagecolor="#ffffff"
     bordercolor="#000000"
     borderopacity="0.25"
     inkscape:showpageshadow="2"
     inkscape:pageopacity="0.0"
     inkscape:pagecheckerboard="0"
     inkscape:deskcolor="#d1d1d1"
     inkscape:document-units="mm"
     showgrid="false"
     inkscape:zoom="7.5871227"
     inkscape:cx="57.531691"
     inkscape:cy="58.981516"
     inkscape:window-width="1920"
     inkscape:window-height="1051"
     inkscape:window-x="-9"
     inkscape:window-y="-9"
     inkscape:window-maximized="1"
     inkscape:current-layer="svg14" />
  <!--Created by TpX drawing tool-->
  <rect
     style="fill:#ffffff;stroke-width:0.278366"
     id="rect226"
     width="31.245926"
     height="31.55978"
     x="-5.0599999"
     y="-25.5" />
  <defs
     id="defs2" />
  <polygon
     stroke="#000000"
     stroke-width="0.45"
     fill="#d3d3d3"
     points="-3.06,2.63 -1.19,2.63 13.19,-21.13 12.56,-23 "
     id="polygon4"
     transform="matrix(1.112502,0,0,1.1166372,-0.5004352,1.891773)"
     style="fill:#280b0b" />
  <polygon
     stroke="#000000"
     stroke-width="0.45"
     fill="#d3d3d3"
     points="12.56,-18 12.56,-16.13 18.19,-16.13 18.19,-23 13.19,-23 13.81,-21.13 16.31,-21.13 16.31,-18 "
     id="polygon6"
     transform="matrix(1.112502,0,0,1.1166372,-0.5004352,1.891773)"
     style="fill:#280b0b" />
  <polygon
     stroke="#000000"
     stroke-width="0.45"
     fill="#d3d3d3"
     points="10.06,0.75 5.06,0.75 5.06,-1.13 3.19,-1.13 3.19,0.75 0.5,0.75 -0.56,2.63 18.19,2.63 18.19,-15.5 16.31,-15.5 16.31,0.75 11.94,0.75 11.94,-3 10.06,-3 "
     id="polygon8"
     transform="matrix(1.112502,0,0,1.1166372,-0.5004352,1.891773)"
     style="fill:#280b0b" />
  <rect
     x="19.735977"
     y="-22.67425"
     width="7.6762633"
     height="0"
     stroke="#c0c0c0"
     stroke-width="0.484822"
     fill="none"
     id="rect10"
     style="fill:#ffffff" />
  <polyline
     stroke="#c0c0c0"
     stroke-width="0.15"
     fill="none"
     points="21.50,-23.50 21.50,-22.00 20.50,-23.00 24.00,-23.00"
     id="polyline12"
     transform="matrix(1.112502,0,0,1.1166372,-0.5004352,1.891773)"
     style="fill:#ffffff" />
</svg>
